HIERARCHY
ROOT Hips
{
  OFFSET 0 0 0
  CHANNELS 6 Xposition Yposition Zposition Zrotation Yrotation Xrotation
  JOINT LeftThigh
  {
    OFFSET 8.409438 0 -5.917753
    CHANNELS 3 Zrotation Yrotation Xrotation
    JOINT LeftLeg
    {
      OFFSET 0 0 -42.358652
      CHANNELS 3 Zrotation Yrotation Xrotation
      JOINT LeftFoot
      {
        OFFSET 0 0 -39.357303
        CHANNELS 3 Zrotation Yrotation Xrotation
      }
    }
  }
  JOINT RightThigh
  {
    OFFSET -8.409438 0 -5.917753
    CHANNELS 3 Zrotation Yrotation Xrotation
    JOINT RightLeg
    {
      OFFSET 0 0 -42.358652
      CHANNELS 3 Zrotation Yrotation Xrotation
      JOINT RightFoot
      {
        OFFSET 0 0 -39.357303
        CHANNELS 3 Zrotation Yrotation Xrotation
      }
    }
  }
  JOINT SpineLow
  {
    OFFSET 0 0 4.719101
    CHANNELS 3 Zrotation Yrotation Xrotation
    JOINT SpineMid
    {
      OFFSET 0 0 12.899191
      CHANNELS 3 Zrotation Yrotation Xrotation
      JOINT Chest
      {
        OFFSET 0 0 12.899191
        CHANNELS 3 Zrotation Yrotation Xrotation
        JOINT LeftShoulder
        {
          OFFSET 7.550562 1.41573 9.438202
          CHANNELS 3 Zrotation Yrotation Xrotation
          JOINT LeftArm
          {
            OFFSET 9.155056 0 4.247191
            CHANNELS 3 Zrotation Yrotation Xrotation
            JOINT LeftForearm
            {
              OFFSET 0 0 25.771955
              CHANNELS 3 Zrotation Yrotation Xrotation
              JOINT LeftHand
              {
                OFFSET 0 0 25.197169
                CHANNELS 3 Zrotation Yrotation Xrotation
              }
            }
          }
        }
        JOINT RightShoulder
        {
          OFFSET -7.550562 1.41573 9.438202
          CHANNELS 3 Zrotation Yrotation Xrotation
          JOINT RightArm
          {
            OFFSET -9.155056 0 4.247191
            CHANNELS 3 Zrotation Yrotation Xrotation
            JOINT RightForearm
            {
              OFFSET 0 0 -25.771955
              CHANNELS 3 Zrotation Yrotation Xrotation
              JOINT RightHand
              {
                OFFSET 0 0 -25.197169
                CHANNELS 3 Zrotation Yrotation Xrotation
              }
            }
          }
        }
        JOINT Neck
        {
          OFFSET 0 0 15.101124
          CHANNELS 3 Zrotation Yrotation Xrotation
          JOINT Head
          {
            OFFSET 0 0 11.325843
            CHANNELS 3 Zrotation Yrotation Xrotation
            End Site
            {
              OFFSET 0 0 14.157303
            }
          }
        }
      }
    }
  }
}
MOTION
Frames: 15
Frame Time: 0.0
0.0  89.887642  0.0  2.138586  -28.055509  -96.83515  20.965181  -14.468875  0.548045  3.722645  6.482363  29.734725  3.973254  1.023932  2.151718  1.260765  10.664414  -15.21125  -1.575082  4.915358  27.100305  6.708711  0.892544  -0.23546  2.561093  -0.551913  0.519401  6.98946  -1.561542  1.359725  6.98946  -1.561542  1.359725  -6.039491  23.402815  5.736033  140.024809  34.591961  -170.415871  0.884658  -4.860807  36.266125  75.380605  -1.614871  -0.873767  -4.142723  3.293147  23.626292  64.475213  27.356275  25.76829  10.249336  6.928562  -44.785369  97.06039  3.047547  -19.330132  -6.965139  3.022855  0.664379  -5.225937  2.259922  0.532733  
0.0  89.887642  0.0  2.939667  -27.757827  -96.945178  19.958727  -12.956547  0.283693  3.670534  6.246101  30.373459  4.160633  1.052838  2.318949  0.309623  11.568313  -16.82329  -1.322552  4.826665  29.331175  6.872805  0.962293  -0.329659  2.581324  -0.425142  0.503165  7.04732  -1.21417  1.328344  7.04732  -1.21417  1.328344  -6.467889  23.338543  6.006311  140.53961  35.000747  -169.815865  1.175754  -4.917793  36.086957  75.608329  -0.960214  -0.193478  -3.990166  3.324977  24.121761  64.135727  27.051076  25.601167  10.078484  6.604176  -45.236542  97.007741  2.46056  -19.395277  -7.100036  2.94217  0.596023  -5.326733  2.200059  0.481205  
0.0  89.887642  0.0  3.808933  -26.964059  -96.891796  17.917228  -11.101287  -0.554308  4.883176  5.646235  32.049054  4.382938  1.275816  2.451337  -1.107629  12.38381  -18.596418  -1.55358  4.756796  31.493044  7.575791  1.555194  -0.402676  2.570852  -0.277848  0.486449  7.021572  -0.810116  1.29848  7.021572  -0.810116  1.29848  -7.414091  23.242103  5.93264  141.056662  35.384328  -169.226625  1.591233  -5.057109  35.889908  75.944249  -0.152305  0.605616  -4.065486  3.437843  24.477552  63.936491  26.705112  25.443864  9.882871  6.094296  -45.585359  96.902038  1.706948  -19.371739  -7.391439  2.846281  0.436349  -5.544475  2.129805  0.361708  
0.0  89.887642  0.0  4.666093  -25.531212  -96.623037  15.214163  -9.641401  -2.044694  5.753559  5.86432  33.60707  4.620798  1.380224  2.555729  -3.357724  12.973483  -20.29742  -0.595958  4.949715  33.150312  7.791593  1.675356  -0.442948  2.50252  -0.11282  0.46956  6.837961  -0.356538  1.270261  6.837961  -0.356538  1.270261  -8.76674  23.032813  5.495299  141.367258  35.703922  -168.687128  2.026822  -5.294328  35.633534  76.342664  0.809433  1.53096  -4.145781  3.544202  24.733632  63.753073  26.330865  25.293015  9.601928  5.517699  -45.917484  96.708491  0.816031  -19.367626  -7.833942  2.715575  0.186755  -5.875186  2.034684  0.17491  
0.0  89.887642  0.0  5.409498  -23.037458  -96.239575  12.467873  -8.734727  -3.773943  6.303075  6.506284  35.246401  4.692351  1.446756  2.684051  -6.87608  13.451633  -21.825523  0.843727  5.16008  34.471918  8.103916  1.724407  -0.603177  2.286079  0.040762  0.472591  6.249292  0.066659  1.294304  6.249292  0.066659  1.294304  -10.153532  22.800749  4.88454  141.239011  36.0351  -168.103372  2.46447  -5.635822  35.266602  76.89408  1.919508  2.621988  -4.141204  3.59661  24.835539  60.47351  26.317897  23.419606  12.12138  6.094124  -45.734597  96.146735  -0.227984  -19.432274  -8.352701  2.604574  -0.134441  -6.262873  1.955701  -0.065205  
0.0  89.887642  0.0  5.821506  -19.484197  -95.704924  9.716145  -8.239693  -5.662562  6.299098  7.308832  36.904389  4.508721  1.425777  2.720761  -11.066019  13.845997  -23.156552  2.05508  5.440894  35.657559  8.463454  1.805072  -0.871669  1.911353  0.142004  0.510464  5.227267  0.347532  1.405529  5.227266  0.347532  1.405529  -11.712225  22.58294  4.033384  140.904681  36.506293  -167.384396  3.179052  -6.10297  34.799981  77.649529  3.168847  3.880137  -3.872199  3.544908  24.780382  60.137478  26.011905  23.485414  11.792284  5.701353  -46.328986  96.296513  -1.328145  -19.522659  -8.922875  2.532896  -0.584471  -6.688651  1.908689  -0.401377  
0.0  89.887642  0.0  5.762527  -15.657848  -94.916356  7.541811  -8.300313  -7.970634  5.686732  8.295648  38.652939  4.230684  1.401206  2.746232  -14.500136  13.814308  -23.896722  2.899579  5.840014  36.379665  8.781683  1.850877  -1.08213  1.60766  0.098193  0.629057  4.396607  0.226442  1.725122  4.396607  0.226442  1.725122  -14.019581  22.716958  2.474956  138.133662  37.412121  -166.67084  3.305487  -6.915322  32.993556  78.788225  4.475379  5.548365  -4.125441  3.850758  24.043836  59.633068  25.818887  23.509593  11.699707  4.922249  -47.187865  97.270398  -2.425773  -19.831085  -9.976789  2.612859  -1.411935  -7.475304  1.98333  -1.016402  
0.0  89.887642  0.0  5.515383  -11.335264  -94.045484  5.305888  -8.552833  -10.510073  4.680503  9.457277  40.353296  4.060784  1.398299  2.816903  -17.187326  13.81162  -24.296882  3.313809  6.04004  37.04557  8.930675  1.936076  -1.20651  1.155978  0.064032  0.700687  3.161306  0.14148  1.917818  3.161306  0.14148  1.917818  -15.399553  22.879228  1.244826  136.239605  38.635356  -166.327393  5.827263  -7.872004  32.088779  80.267711  5.86144  7.875202  -3.563865  3.794462  23.645667  58.81037  25.980358  23.32788  11.992896  4.119764  -47.644075  98.57437  -2.660628  -20.0929  -10.708126  2.560984  -2.080309  -8.021148  1.957924  -1.515618  
0.0  89.887642  0.0  5.237792  -6.949069  -93.334245  3.470106  -8.982313  -13.127647  3.319881  10.791299  42.040606  3.791177  1.457404  2.824206  -18.319479  14.129598  -24.225507  2.899266  6.069211  37.725883  8.580739  2.088219  -1.19874  0.753119  0.005305  0.809874  2.058488  -0.010717  2.213629  2.058488  -0.010717  2.21363  -16.9215  23.148535  -0.107463  133.27178  40.237133  -166.213639  9.478036  -8.990138  30.765002  81.908319  7.123577  11.003983  -2.91786  3.689873  23.195317  57.510275  26.303914  22.870013  12.370538  3.262958  -47.930146  99.535166  -2.703074  -19.817785  -11.571671  2.480441  -2.788793  -8.666293  1.913993  -2.045138  
0.0  89.887642  0.0  4.929084  -2.196028  -92.47851  2.001818  -9.295862  -15.931205  1.16962  12.179943  43.302338  3.969362  1.591626  2.819386  -18.550153  14.632251  -23.897364  1.334965  6.317176  38.388779  7.981969  2.313464  -1.194336  0.33669  -0.101484  0.89336  0.916421  -0.289782  2.440458  0.916421  -0.289782  2.440458  -18.357314  23.505265  -1.635738  129.395696  41.889719  -166.495808  14.411507  -10.144279  29.073559  83.190702  7.685652  14.716147  -2.114746  3.851048  22.668677  56.153343  26.534704  22.334064  12.462464  2.014385  -48.332463  99.354824  -3.015402  -19.000299  -12.618218  2.474643  -3.581264  -9.448079  1.930979  -2.635732  
0.0  89.887642  0.0  4.736947  2.770041  -91.727445  0.404795  -9.233246  -18.141365  -0.94983  13.170544  43.871548  4.366322  1.739589  2.696228  -18.308849  15.331219  -23.182311  -1.104906  6.966745  38.93667  7.616442  2.731405  -1.164612  -0.068467  -0.251129  1.014264  -0.197647  -0.683426  2.773188  -0.197647  -0.683426  2.773189  -20.067184  24.110534  -3.814712  124.435492  43.540868  -167.552449  20.037451  -11.045852  27.449103  83.878636  7.830238  18.18496  -1.284685  4.335193  21.840404  55.259636  26.760788  22.01067  11.951147  0.108615  -48.940737  98.153958  -3.505935  -18.062787  -13.824328  2.53241  -4.522883  -10.348495  2.002968  -3.336307  
0.0  89.887642  0.0  4.760458  7.743007  -91.227714  -0.998327  -8.946721  -19.392631  -3.116232  13.995488  43.498263  4.386029  1.678039  2.537017  -17.555091  16.400385  -22.146251  -4.201335  7.962159  39.498174  7.160872  3.007536  -1.258652  -0.406157  -0.444468  1.249745  -1.132929  -1.193511  3.423751  -1.132929  -1.19351  3.423751  -22.364878  24.791446  -6.881458  118.474712  45.209978  -169.220993  25.208681  -11.258177  25.801327  84.403984  7.203475  20.476273  -0.630249  5.12516  20.434315  54.581172  27.137421  21.883554  11.034079  -2.195173  -49.936162  96.506279  -4.102387  -17.209871  -15.349715  2.581593  -5.781473  -11.487152  2.083202  -4.27368  
0.0  89.887642  0.0  4.915966  12.655667  -90.984093  -1.910102  -8.773572  -19.88704  -5.70663  14.968557  42.362802  4.126719  1.716843  2.233738  -16.466346  17.596041  -20.765299  -6.470419  8.300825  40.326521  5.92372  3.246261  -1.50474  -0.660804  -0.667168  1.52642  -1.847933  -1.780941  4.191127  -1.847933  -1.780941  4.191128  -24.86241  25.68085  -10.177725  111.164023  46.825106  -171.644837  29.358558  -10.766919  24.328163  84.700156  6.258595  20.828572  -0.057229  6.151237  19.145061  53.704586  27.638457  21.621003  9.916129  -4.033826  -51.527809  94.498653  -5.02426  -16.374604  -17.18982  2.701381  -7.01152  -12.861024  2.225729  -5.186491  
0.0  89.887642  0.0  4.941698  17.249938  -90.981369  -2.843249  -8.897907  -19.867918  -7.928615  15.826812  40.899981  3.896035  1.797386  1.916872  -15.439084  18.308776  -18.958936  -8.583933  8.997486  40.534418  5.450722  3.430015  -1.522755  -0.70046  -0.888583  1.761642  -1.97898  -2.37611  4.842479  -1.97898  -2.37611  4.842479  -27.737549  26.367868  -13.143621  102.744627  47.8339  -174.482943  31.957908  -9.788751  23.123372  85.037217  5.547077  19.379969  -0.122594  7.114112  18.473939  52.447883  28.210476  20.946073  8.349229  -5.549479  -53.765804  92.741361  -6.13766  -15.587052  -19.71984  2.615261  -7.877078  -14.756578  2.218893  -5.829536  
0.0  89.887642  0.0  4.961089  21.59576  -91.374568  -4.087124  -9.053082  -19.231881  -9.28202  16.559614  39.316184  3.683525  1.762249  1.654763  -14.642437  18.559521  -16.615673  -9.979887  9.676782  40.327103  4.77976  3.656965  -1.469016  -0.51768  -1.022736  1.91781  -1.495907  -2.752317  5.266579  -1.495907  -2.752317  5.266579  -31.633075  26.398232  -15.8717  94.794278  47.613523  -177.103245  32.98571  -8.603611  21.922781  85.032024  4.905792  17.0511  -1.332489  7.112763  18.438327  51.189279  28.952324  20.307786  7.185062  -7.552492  -56.327886  91.107308  -6.995885  -14.098453  -22.935682  2.377075  -8.031346  -17.17168  2.08833  -5.943308  
